<?xml version="1.0" encoding="utf-8"?><!DOCTYPE svg PUBLIC "-//W3C//DTD SVG 1.1//EN" "http://www.w3.org/Graphics/SVG/1.1/DTD/svg11.dtd"><svg version="1.1" baseProfile="full" xmlns="http://www.w3.org/2000/svg" xmlns:xlink="http://www.w3.org/1999/xlink" xmlns:ev="http://www.w3.org/2001/xml-events"  height="759px"  width="877px"><path fill="rgb( 142, 206, 99 )" d="M657.747,758.985 C657.747,758.985 219.253,758.985 219.253,758.985 C219.253,758.985 0.00099999999998,379.5 0.00099999999998,379.5 C0.00099999999998,379.5 219.253,0.01499999999999 219.253,0.01499999999999 C219.253,0.01499999999999 657.747,0.01499999999999 657.747,0.01499999999999 C657.747,0.01499999999999 876.999,379.5 876.999,379.5 C876.999,379.5 657.747,758.985 657.747,758.985 ZM617.498,70.012 C617.498,70.012 260.502,70.012 260.502,70.012 C260.502,70.012 82.001,379 82.001,379 C82.001,379 260.502,687.988 260.502,687.988 C260.502,687.988 617.498,687.988 617.498,687.988 C617.498,687.988 795.999,379 795.999,379 C795.999,379 617.498,70.012 617.498,70.012 Z "/><path fill="rgb( 225, 226, 227 )" d="M240.131,546.647 C240.131,546.647 303.745,546.647 303.745,546.647 C303.745,546.647 343.504,447.333 343.504,447.333 C343.504,447.333 534.914,447.333 534.914,447.333 C534.914,447.333 575.241,546.647 575.241,546.647 C575.241,546.647 638.855,546.647 638.855,546.647 C638.855,546.647 466.756,144.85 466.756,144.85 C466.756,144.85 417.342,144.85 417.342,144.85 C417.342,144.85 240.131,546.647 240.131,546.647 ZM362.815,399.662 C362.815,399.662 438.925,215.221 438.925,215.221 C438.925,215.221 440.061,215.221 440.061,215.221 C440.061,215.221 515.035,399.662 515.035,399.662 C515.035,399.662 362.815,399.662 362.815,399.662 Z "/></svg>